<svg version="1.1" xmlns="http://www.w3.org/2000/svg" xmlns:xlink="http://www.w3.org/1999/xlink" x="0px" y="0px"
	 width="34.667px" height="17.667px" viewBox="0 0 34.667 17.667" enable-background="new 0 0 34.667 17.667" xml:space="preserve">
		<path fill="#fff" fill-rule="evenodd" clip-rule="evenodd" d="M32.549,7.206l-10.25-6.182c-0.544-0.274-1.189-0.252-1.713,0.06
			c-0.518,0.312-0.836,0.867-0.836,1.465l-0.031,5.284H2.5c-0.553,0-1,0.448-1,1c0,0.553,0.447,1,1,1h17.261l0.021,1l-0.031,4.284
			c0,0.604,0.321,1.159,0.847,1.469c0.276,0.163,0.588,0.247,0.903,0.247c0.282,0,0.563-0.066,0.824-0.201l10.25-6.389
			c0.573-0.299,0.932-0.89,0.926-1.528C33.494,8.081,33.129,7.5,32.549,7.206z M22.5,12.833v-8l7,4L22.5,12.833z"/>
</svg>
