<svg version="1.1" xmlns="http://www.w3.org/2000/svg" xmlns:xlink="http://www.w3.org/1999/xlink" x="0px" y="0px"
	 width="34.667px" height="17.667px" viewBox="0 0 34.667 17.667" enable-background="new 0 0 34.667 17.667" xml:space="preserve">
		<path fill="#fff" fill-rule="evenodd" clip-rule="evenodd" d="M1.5,8.715c-0.006,0.639,0.353,1.229,0.926,1.528l10.25,6.389
			c0.261,0.135,0.542,0.201,0.824,0.201c0.315,0,0.627-0.084,0.903-0.247c0.525-0.31,0.847-0.864,0.847-1.469l-0.031-4.284l0.021-1
			H32.5c0.553,0,1-0.447,1-1c0-0.552-0.447-1-1-1H15.281L15.25,2.549c0-0.599-0.318-1.153-0.836-1.465
			c-0.523-0.312-1.169-0.334-1.713-0.06L2.451,7.206C1.871,7.5,1.506,8.081,1.5,8.715z M5.5,8.833l7-4v8L5.5,8.833z"/>
</svg>
